PathFileType	4	(X/Y/Z)	/Users/itak/Documents/Research/Walk-IL/dataset/trc/00482_00167.trc
DataRate	CameraRate	NumFrames	NumMarkers	Units	OrigDataRate	OrigDataStartFrame	OrigNumFrames
100.000000	100.000000	4	53	mm	100.000000	69	552
Frame#	Time	RPSI			LPSI			L3			STRN			T10			C7			CLAV			RBAK			LBAK			LSHO			LUPA			LAEL			LAOL			LWTS			LWPS			LFRA			LIFD			LHPS			LHTS			RSHO			RUPA			RAEL			RAOL			RWTS			RWPS			RFRA			RIFD			RHTS			RHPS			RBHD			LFHD			RFHD			LBHD			LHIP			RHIP			RASI			LASI			LKNE			LTHI			LANK			LTIP			LTOE			LMT1			LMT5			LHEE			RKNE			RTHI			RANK			RTIP			RTOE			RMT1			RMT5			RHEE			
		X1	Y1	Z1	X2	Y2	Z2	X3	Y3	Z3	X4	Y4	Z4	X5	Y5	Z5	X6	Y6	Z6	X7	Y7	Z7	X8	Y8	Z8	X9	Y9	Z9	X10	Y10	Z10	X11	Y11	Z11	X12	Y12	Z12	X13	Y13	Z13	X14	Y14	Z14	X15	Y15	Z15	X16	Y16	Z16	X17	Y17	Z17	X18	Y18	Z18	X19	Y19	Z19	X20	Y20	Z20	X21	Y21	Z21	X22	Y22	Z22	X23	Y23	Z23	X24	Y24	Z24	X25	Y25	Z25	X26	Y26	Z26	X27	Y27	Z27	X28	Y28	Z28	X29	Y29	Z29	X30	Y30	Z30	X31	Y31	Z31	X32	Y32	Z32	X33	Y33	Z33	X34	Y34	Z34	X35	Y35	Z35	X36	Y36	Z36	X37	Y37	Z37	X38	Y38	Z38	X39	Y39	Z39	X40	Y40	Z40	X41	Y41	Z41	X42	Y42	Z42	X43	Y43	Z43	X44	Y44	Z44	X45	Y45	Z45	X46	Y46	Z46	X47	Y47	Z47	X48	Y48	Z48	X49	Y49	Z49	X50	Y50	Z50	X51	Y51	Z51	X52	Y52	Z52	X53	Y53	Z53	

70	0.6900000000000001	-1217.49853515625	964.9963989257812	-121.4539642333984	-1199.453857421875	962.4471435546875	-261.1974792480469	-1195.154907226562	1056.007446289062	-177.7088775634766	-921.5853881835938	1247.982299804688	-160.2430725097656	-1208.861328125	1180.229370117188	-185.0588226318359	-1140.4638671875	1446.909790039062	-167.8865814208984	-956.0194091796875	1361.512817382812	-167.1873779296875	-1211.712524414062	1328.944458007812	-77.56351470947266	-1165.865356445312	1400.141967773438	-269.8638000488281	-1055.180053710938	1417.819213867188	-341.7190551757812	-1059.874877929688	1297.983764648438	-439.0732116699219	-1043.13623046875	1081.25244140625	-466.3231506347656	-1126.010620117188	1076.421264648438	-405.2677001953125	-989.9802856445312	871.822998046875	-429.0119018554688	-1036.94384765625	860.7299194335938	-485.3855590820312	-1032.59619140625	992.7374877929688	-478.1771240234375	-992.7890625	713.3282470703125	-437.9706726074219	-1037.051147460938	781.8922729492188	-485.1467590332031	-980.62109375	787.61279296875	-439.377197265625	-1084.062622070312	1416.613159179688	-2.69060754776001	-1107.973022460938	1358.426513671875	72.445556640625	-1112.1240234375	1074.547119140625	137.1938629150391	-1161.9091796875	1059.074584960938	94.03357696533203	-1021.121704101562	861.646484375	109.882453918457	-1093.639404296875	852.218505859375	160.7102203369141	-1112.864868164062	1016.159240722656	149.4579315185547	-1026.93896484375	706.6383056640625	124.8442077636719	-1010.30517578125	765.6519165039062	125.2689437866211	-1080.67333984375	765.24609375	161.5723876953125	-1080.9677734375	1638.749145507812	-77.60404968261719	-928.2822875976562	1670.618774414062	-213.8235015869141	-946.419921875	1669.249389648438	-84.48809814453125	-1073.116088867188	1643.135986328125	-255.0985412597656	-1055.810913085938	861.2513427734375	-363.5989074707031	-1123.675170898438	861.578125	29.72284889221191	-1007.898498535156	897.1913452148438	-16.73600578308105	-964.7581176757812	892.7655029296875	-273.62744140625	-1082.948364257812	446.5216369628906	-351.9789428710938	-1043.57421875	595.2810668945312	-360.9722595214844	-1164.457885742188	42.58732604980469	-373.4399108886719	-1095.66796875	303.1042175292969	-374.984130859375	-935.2214965820312	44.61552047729492	-289.9712829589844	-1014.3193359375	50.65328979492188	-266.6621398925781	-1009.542907714844	46.35660934448242	-380.2479553222656	-1212.267822265625	47.04340744018555	-311.8727111816406	-1119.589599609375	470.6893615722656	26.78879547119141	-1085.444213867188	729.1986083984375	49.89659118652344	-1187.07177734375	45.31341934204102	52.88602447509766	-1126.5537109375	331.0399780273438	46.11301803588867	-971.267822265625	47.91046524047852	6.0804443359375	-1033.919555664062	54.09204483032227	-29.23336982727051	-1054.222412109375	46.84133911132812	79.26728057861328	-1251.46484375	37.17453002929688	8.191701889038086	
71	0.7000000000000001	-1217.34228515625	965.0540161132812	-121.580924987793	-1199.23681640625	962.5130004882812	-261.3148193359375	-1194.853881835938	1056.120849609375	-177.7729644775391	-921.205810546875	1247.892211914062	-160.3169097900391	-1208.52783203125	1180.328247070312	-185.0997772216797	-1139.921264648438	1446.979248046875	-167.9716339111328	-955.6321411132812	1361.41796875	-167.2289581298828	-1211.213500976562	1329.07421875	-77.71207427978516	-1165.328735351562	1400.237915039062	-269.973388671875	-1054.60302734375	1417.831787109375	-341.7828674316406	-1059.363647460938	1298.017578125	-439.1700439453125	-1042.732421875	1081.23291015625	-466.45166015625	-1125.57470703125	1076.47216796875	-405.3904724121094	-989.7567749023438	871.8348388671875	-429.0933227539062	-1036.560668945312	860.7646484375	-485.5160217285156	-1032.221923828125	992.7269897460938	-478.2679443359375	-992.368408203125	713.3873291015625	-437.9998779296875	-1036.753295898438	781.9685668945312	-485.2965698242188	-980.3355102539062	787.5638427734375	-439.472900390625	-1083.561889648438	1416.664672851562	-2.763428926467896	-1107.509521484375	1358.56298828125	72.38201141357422	-1111.8056640625	1074.621826171875	137.1851196289062	-1161.63671875	1059.2236328125	94.06358337402344	-1020.904174804688	861.701171875	109.8717498779297	-1093.446411132812	852.3187866210938	160.7384490966797	-1112.59130859375	1016.259765625	149.4859771728516	-1026.841186523438	706.6793212890625	124.9085311889648	-1010.143676757812	765.6821899414062	125.2482986450195	-1080.543090820312	765.3324584960938	161.627685546875	-1080.134033203125	1638.799926757812	-77.6654052734375	-927.4013061523438	1670.432861328125	-213.8646545410156	-945.5416259765625	1669.072998046875	-84.51084899902344	-1072.26025390625	1643.172729492188	-255.1620635986328	-1055.568725585938	861.236328125	-363.6546630859375	-1123.6162109375	861.5560302734375	29.57597732543945	-1007.853759765625	897.1524658203125	-16.82427787780762	-964.492919921875	892.6952514648438	-273.6161193847656	-1082.71533203125	446.5036315917969	-351.9496154785156	-1043.376220703125	595.2507934570312	-360.9934387207031	-1164.470947265625	42.60139846801758	-373.4463806152344	-1095.598022460938	303.0741882324219	-374.9916381835938	-935.2255859375	44.61853790283203	-289.9705200195312	-1014.330078125	50.64015579223633	-266.6489562988281	-1009.556762695312	46.36715316772461	-380.2398986816406	-1212.273071289062	47.03348159790039	-311.8663940429688	-1119.513671875	470.67236328125	26.78793716430664	-1085.434326171875	729.207275390625	49.85145568847656	-1187.0771484375	45.29949188232422	52.91523361206055	-1126.480834960938	331.0196838378906	46.11905670166016	-971.2763671875	47.91436004638672	6.080208778381348	-1033.927978515625	54.0869140625	-29.23542785644531	-1054.224243164062	46.84446334838867	79.27083587646484	-1251.478759765625	37.15345764160156	8.222193717956543	
72	0.71	-1217.171020507812	965.117919921875	-121.7239379882812	-1198.998901367188	962.596435546875	-261.4476013183594	-1194.5390625	1056.236206054688	-177.846923828125	-920.81005859375	1247.813232421875	-160.3943481445312	-1208.177978515625	1180.4267578125	-185.1593627929688	-1139.3603515625	1447.050048828125	-168.0594635009766	-955.2117309570312	1361.31982421875	-167.2857055664062	-1210.6904296875	1329.204833984375	-77.85890197753906	-1164.773193359375	1400.330322265625	-270.0984191894531	-1054.005249023438	1417.851196289062	-341.8576049804688	-1058.836547851562	1298.058471679688	-439.2769775390625	-1042.296020507812	1081.209350585938	-466.6067199707031	-1125.111694335938	1076.529174804688	-405.5274353027344	-989.4928588867188	871.8604736328125	-429.1803894042969	-1036.144897460938	860.8199462890625	-485.6715393066406	-1031.812377929688	992.71484375	-478.3700256347656	-991.970458984375	713.4608764648438	-438.0197448730469	-1036.444091796875	782.0353393554688	-485.4371337890625	-979.9727783203125	787.5443115234375	-439.5774841308594	-1083.035400390625	1416.721313476562	-2.854933977127075	-1107.016723632812	1358.705932617188	72.30931854248047	-1111.484252929688	1074.703125	137.1827850341797	-1161.339721679688	1059.373657226562	94.08201599121094	-1020.695068359375	861.7546997070312	109.8485260009766	-1093.242309570312	852.4223022460938	160.7635650634766	-1112.299682617188	1016.363403320312	149.5047760009766	-1026.738891601562	706.7167358398438	124.9508056640625	-1010.019653320312	765.6975708007812	125.2671203613281	-1080.40234375	765.4269409179688	161.6826171875	-1079.255737304688	1638.841186523438	-77.72561645507812	-926.4812622070312	1670.229248046875	-213.9241027832031	-944.6249389648438	1668.870239257812	-84.55745697021484	-1071.368774414062	1643.23388671875	-255.2334442138672	-1055.311889648438	861.2310180664062	-363.7307739257812	-1123.556884765625	861.53515625	29.41996955871582	-1007.808044433594	897.108642578125	-16.92702674865723	-964.2467041015625	892.610107421875	-273.6120300292969	-1082.486938476562	446.4789428710938	-351.9264221191406	-1043.175170898438	595.2199096679688	-361.0212097167969	-1164.4814453125	42.61136245727539	-373.4510803222656	-1095.540405273438	303.0458984375	-374.9996643066406	-935.2332763671875	44.62380218505859	-289.97021484375	-1014.34130859375	50.62654495239258	-266.6344604492188	-1009.571960449219	46.37833786010742	-380.2304992675781	-1212.279541015625	47.02349090576172	-311.8587951660156	-1119.432495117188	470.6546630859375	26.78812026977539	-1085.432739257812	729.2171630859375	49.81411361694336	-1187.08154296875	45.283447265625	52.94790267944336	-1126.394897460938	330.9959106445312	46.11586380004883	-971.2885131835938	47.91831207275391	6.083019733428955	-1033.93798828125	54.08160781860352	-29.23852157592773	-1054.225952148438	46.84919738769531	79.27402496337891	-1251.497192382812	37.1295280456543	8.260503768920898	
73	0.72	-1216.985473632812	965.189208984375	-121.882568359375	-1198.740478515625	962.6990966796875	-261.5931701660156	-1194.20703125	1056.353515625	-177.9354858398438	-920.4014892578125	1247.744384765625	-160.4773406982422	-1207.80126953125	1180.526123046875	-185.2453460693359	-1138.77734375	1447.120483398438	-168.1582794189453	-954.75	1361.219116210938	-167.3604736328125	-1210.150634765625	1329.333984375	-77.99678802490234	-1164.198974609375	1400.419189453125	-270.2351379394531	-1053.3857421875	1417.875854492188	-341.9488525390625	-1058.28515625	1298.101928710938	-439.3913879394531	-1041.837890625	1081.185424804688	-466.7838134765625	-1124.63037109375	1076.591918945312	-405.6778869628906	-989.1761474609375	871.897216796875	-429.2762145996094	-1035.709594726562	860.890625	-485.8445434570312	-1031.3662109375	992.70458984375	-478.4859924316406	-991.6160888671875	713.5372924804688	-438.048828125	-1036.123046875	782.0881958007812	-485.5657958984375	-979.5386962890625	787.5498657226562	-439.6892700195312	-1082.4794921875	1416.782958984375	-2.970727443695068	-1106.4931640625	1358.850830078125	72.22509002685547	-1111.161010742188	1074.792846679688	137.1866149902344	-1161.008056640625	1059.51806640625	94.07633209228516	-1020.488159179688	861.8060913085938	109.8119812011719	-1093.024291992188	852.5267333984375	160.7832946777344	-1111.988403320312	1016.468505859375	149.5095825195312	-1026.625	706.7496948242188	124.9685974121094	-1009.922119140625	765.6976318359375	125.3212203979492	-1080.24951171875	765.5272827148438	161.7361755371094	-1078.334228515625	1638.87548828125	-77.78886413574219	-925.5217895507812	1670.003784179688	-214.0006256103516	-943.6681518554688	1668.642333984375	-84.62672424316406	-1070.442138671875	1643.318481445312	-255.3088531494141	-1055.043212890625	861.23876953125	-363.8284301757812	-1123.49951171875	861.5167236328125	29.25824546813965	-1007.757690429688	897.0618896484375	-17.03962326049805	-964.02978515625	892.5079956054688	-273.6161499023438	-1082.270385742188	446.4417724609375	-351.9122924804688	-1042.966674804688	595.1934814453125	-361.0580749511719	-1164.489624023438	42.6168098449707	-373.4535217285156	-1095.486206054688	303.0218505859375	-375.006591796875	-935.2446899414062	44.63182067871094	-289.9700622558594	-1014.352416992188	50.61428833007812	-266.6184997558594	-1009.587890625	46.39028549194336	-380.2195129394531	-1212.287475585938	47.01416015625	-311.8500671386719	-1119.345703125	470.6362915039062	26.78699111938477	-1085.436645507812	729.2272338867188	49.78097152709961	-1187.086059570312	45.26531982421875	52.98390960693359	-1126.30224609375	330.9698181152344	46.10920333862305	-971.3040161132812	47.92276382446289	6.089366436004639	-1033.949584960938	54.07671356201172	-29.24184799194336	-1054.227172851562	46.85478591918945	79.27625274658203	-1251.51953125	37.10152816772461	8.306110382080078	
